<?xml version="1.0" encoding="UTF-8" standalone="no"?>
<!DOCTYPE svg PUBLIC "-//W3C//DTD SVG 1.1//EN" "http://www.w3.org/Graphics/SVG/1.1/DTD/svg11.dtd">
<svg width="100%" height="100%" viewBox="0 0 320 100" version="1.1" xmlns="http://www.w3.org/2000/svg" xmlns:xlink="http://www.w3.org/1999/xlink" xml:space="preserve" xmlns:serif="http://www.serif.com/" style="fill-rule:evenodd;clip-rule:evenodd;stroke-linejoin:round;stroke-miterlimit:2;">
    <g transform="matrix(1,0,0,1,-40,-660.03)">
        <g transform="matrix(1.17647,0,0,1.04167,0,0)">
            <g transform="matrix(0.321377,0,0,0.362967,-138.521,574.415)">
                <path d="M560.266,163.142L580.094,163.142L571.282,204.371L561.683,207.991L561.525,208.62L582.14,208.62L591.897,163.142L611.725,163.142L588.278,273.296L568.45,273.296L578.521,226.244L566.561,226.244L556.647,273.296L536.819,273.296L560.266,163.142Z" style="fill:white;fill-rule:nonzero;"/>
                <path d="M621.95,163.142L659.403,163.142L655.626,181.239L637.844,181.239L632.966,204.371L623.367,207.991L623.209,208.62L647.916,208.62L644.139,226.245L628.245,226.245L623.052,250.951L613.453,254.57L613.296,255.2L639.89,255.2L635.956,273.297L598.503,273.297L621.95,163.143L621.95,163.142Z" style="fill:white;fill-rule:nonzero;"/>
                <path d="M677.182,181.238L665.851,181.238L669.786,163.141L712.274,163.141L708.498,181.238L697.01,181.238L677.497,273.296L657.669,273.296L677.182,181.238Z" style="fill:white;fill-rule:nonzero;"/>
                <path d="M746.417,163.142L766.245,163.142L747.518,250.951L737.919,254.57L737.762,255.2L763.255,255.2L759.479,273.297L722.97,273.297L746.417,163.143L746.417,163.142Z" style="fill:white;fill-rule:nonzero;"/>
                <path d="M770.019,251.265L788.903,163.142L808.731,163.142L789.847,251.265C789.06,254.885 790.949,257.088 794.568,257.088C798.03,257.088 800.862,254.885 801.649,251.265L820.533,163.142L840.361,163.142L821.477,251.265C818.487,265.585 806.055,275.185 790.634,275.185C775.213,275.185 767.029,265.585 770.019,251.265Z" style="fill:white;fill-rule:nonzero;"/>
                <path d="M850.586,163.142L870.414,163.142L861.602,204.371L852.003,207.991L851.845,208.62L863.962,208.62L884.891,163.142L906.45,163.142L879.226,216.803L884.262,273.296L861.759,273.296L860.028,226.244L856.881,226.244L846.967,273.296L827.139,273.296L850.586,163.142Z" style="fill:white;fill-rule:nonzero;"/>
                <path d="M922.97,181.238L911.64,181.238L915.574,163.141L958.062,163.141L954.286,181.238L942.798,181.238L923.285,273.296L903.457,273.296L922.97,181.238Z" style="fill:white;fill-rule:nonzero;"/>
                <path d="M1005.58,163.142L1036.11,163.142L1025.88,273.296L1004.95,273.296L1008.57,246.701L996.452,246.701L988.742,273.296L968.757,273.296L1005.58,163.142ZM1010.77,230.336L1015.49,191.939L1017.54,182.812L1014.71,182.812L1012.82,191.939L1002.28,225.93L992.361,229.706L992.204,230.336L1010.77,230.336Z" style="fill:white;fill-rule:nonzero;"/>
                <path d="M1059.08,163.142L1078.91,163.142L1060.18,250.951L1050.58,254.57L1050.43,255.2L1075.92,255.2L1072.14,273.297L1035.63,273.297L1059.08,163.143L1059.08,163.142Z" style="fill:white;fill-rule:nonzero;"/>
                <path d="M1105.82,163.142L1125.64,163.142L1106.92,250.951L1097.32,254.57L1097.16,255.2L1122.65,255.2L1118.88,273.297L1082.37,273.297L1105.81,163.143L1105.82,163.142Z" style="fill:white;fill-rule:nonzero;"/>
                <path d="M1152.55,163.142L1190,163.142L1186.23,181.239L1168.44,181.239L1163.57,204.371L1153.96,207.991L1153.81,208.62L1178.51,208.62L1174.74,226.245L1158.84,226.245L1153.65,250.951L1144.05,254.57L1143.89,255.2L1170.49,255.2L1166.55,273.297L1129.1,273.297L1152.55,163.143L1152.55,163.142Z" style="fill:white;fill-rule:nonzero;"/>
                <path d="M1200.31,163.142L1237.76,163.142L1233.98,181.239L1216.2,181.239L1211.32,204.371L1201.72,207.991L1201.57,208.62L1226.27,208.62L1222.5,226.245L1206.6,226.245L1201.41,250.951L1191.81,254.57L1191.65,255.2L1218.25,255.2L1214.31,273.297L1176.86,273.297L1200.31,163.143L1200.31,163.142Z" style="fill:white;fill-rule:nonzero;"/>
                <path d="M1248.06,163.142L1270.88,163.142L1271.04,215.386L1269.78,229.235L1272.45,229.235L1273.71,215.386L1284.73,163.142L1304.56,163.142L1281.11,273.296L1258.45,273.296L1258.14,221.051L1259.55,207.203L1256.88,207.203L1255.46,221.051L1244.44,273.296L1224.62,273.296L1248.06,163.142Z" style="fill:white;fill-rule:nonzero;"/>
                <path d="M706.275,315.423L741.683,315.423L731.769,388.44L728.149,405.907L730.824,405.907L734.601,388.44L755.845,315.423L790.622,315.423L767.175,425.577L747.347,425.577L764.185,346.423L766.073,337.453L763.398,337.453L761.353,346.423L737.748,425.577L712.255,425.577L722.169,346.423L723.9,337.453L721.225,337.453L719.494,346.423L702.656,425.577L682.828,425.577L706.275,315.423Z" style="fill:white;fill-rule:nonzero;"/>
                <path d="M800.845,315.423L838.298,315.423L834.521,333.52L816.739,333.52L811.861,356.652L802.262,360.272L802.104,360.901L826.811,360.901L823.034,378.526L807.14,378.526L801.947,403.232L792.348,406.851L792.191,407.481L818.785,407.481L814.851,425.578L777.398,425.578L800.845,315.424L800.845,315.423Z" style="fill:white;fill-rule:nonzero;"/>
                <path d="M856.078,333.52L844.748,333.52L848.682,315.423L891.17,315.423L887.394,333.52L875.906,333.52L856.393,425.578L836.565,425.578L856.078,333.52Z" style="fill:white;fill-rule:nonzero;"/>
                <path d="M925.313,315.423L945.141,315.423L926.414,403.232L916.815,406.851L916.658,407.481L942.151,407.481L938.374,425.578L901.866,425.578L925.313,315.424L925.313,315.423Z" style="fill:white;fill-rule:nonzero;"/>
                <path d="M950.331,403.546L964.336,337.296C967.483,323.133 979.757,313.534 995.179,313.534C1010.6,313.534 1018.94,323.133 1015.95,337.296L1001.79,403.546C998.798,417.866 986.367,427.466 970.945,427.466C955.523,427.466 947.183,417.866 950.331,403.546ZM981.961,403.546L995.966,337.453C996.753,333.834 994.864,331.631 991.245,331.631C987.783,331.631 984.95,333.834 984.163,337.453L970.158,403.546C969.371,407.166 971.26,409.369 974.721,409.369C978.341,409.369 981.173,407.166 981.96,403.546L981.961,403.546Z" style="fill:white;fill-rule:nonzero;"/>
                <path d="M1013.12,405.906L1027.59,337.296C1030.74,323.133 1043.01,313.534 1058.44,313.534C1073.86,313.534 1082.2,323.133 1079.21,337.296L1076.22,351.459L1056.39,351.459L1059.22,337.453C1060.01,333.834 1058.12,331.631 1054.5,331.631C1051.04,331.631 1048.21,333.834 1047.42,337.453L1033.41,403.546C1032.63,407.166 1034.67,409.369 1038.29,409.369C1041.91,409.369 1044.9,407.166 1045.69,403.546L1051.2,377.896L1044.9,377.896L1048.21,361.531L1074.02,361.531L1060.48,425.578L1046.95,425.578L1048.05,419.756L1049,417.867L1047.11,417.867L1046.32,419.756C1042.86,424.791 1036.4,427.467 1029.32,427.467C1016.74,427.467 1010.28,418.812 1013.12,405.907L1013.12,405.906Z" style="fill:white;fill-rule:nonzero;"/>
                <path d="M1096.7,315.423L1116.53,315.423L1093.09,425.577L1073.26,425.577L1096.7,315.423Z" style="fill:white;fill-rule:nonzero;"/>
                <path d="M1108.51,403.546L1111.97,387.181L1131.8,387.181L1128.33,403.546C1127.55,407.166 1129.43,409.369 1133.05,409.369C1136.52,409.369 1139.35,407.166 1140.13,403.546L1142.97,390.8C1145.8,377.738 1114.8,375.851 1120.15,350.515L1122.98,337.296C1125.97,322.976 1138.09,313.534 1153.35,313.534C1168.62,313.534 1176.96,322.975 1173.81,337.296L1170.66,351.931L1150.84,351.931L1154.14,337.139C1154.61,333.834 1152.88,331.631 1149.58,331.631C1146.12,331.631 1143.44,333.677 1142.81,337.139L1140.45,348.155C1137.78,361.374 1168.62,363.104 1163.27,388.44L1159.96,403.546C1156.97,417.866 1144.54,427.466 1129.12,427.466C1113.7,427.466 1105.52,417.866 1108.51,403.546L1108.51,403.546Z" style="fill:white;fill-rule:nonzero;"/>
                <path d="M1194.27,333.52L1182.93,333.52L1186.87,315.423L1229.36,315.423L1225.58,333.52L1214.09,333.52L1194.58,425.578L1174.75,425.578L1194.27,333.52Z" style="fill:white;fill-rule:nonzero;"/>
                <path d="M1239.27,315.423L1259.1,315.423L1235.65,425.577L1215.82,425.577L1239.27,315.423Z" style="fill:white;fill-rule:nonzero;"/>
                <path d="M1269.64,315.423L1307.09,315.423L1303.31,333.52L1285.53,333.52L1280.65,356.652L1271.05,360.272L1270.9,360.901L1295.6,360.901L1291.83,378.526L1275.93,378.526L1270.74,403.232L1261.14,406.851L1260.98,407.481L1287.58,407.481L1283.64,425.578L1246.19,425.578L1269.64,315.424L1269.64,315.423Z" style="fill:white;fill-rule:nonzero;"/>
                <path d="M1317.47,315.423L1337.3,315.423L1328.49,356.652L1318.89,360.272L1318.73,360.901L1330.85,360.901L1351.78,315.423L1373.34,315.423L1346.12,369.084L1351.15,425.577L1328.65,425.577L1326.92,378.525L1323.77,378.525L1313.86,425.577L1294.03,425.577L1317.48,315.423L1317.47,315.423Z" style="fill:white;fill-rule:nonzero;"/>
                <circle cx="1371.88" cy="415.264" r="11.298" style="fill:white;"/>
            </g>
        </g>
    </g>
</svg>
